<svg id="Layer_1" data-name="Layer 1" xmlns="http://www.w3.org/2000/svg" viewBox="0 0 391.94 143.55"><defs><style>.cls-1{fill:#fdb92d;}.cls-2,.cls-3{fill:#273986;}.cls-2{fill-rule:evenodd;}</style></defs><path class="cls-1" d="M187.46,43.24l1.91-3.51a10.2,10.2,0,0,1,9.26-5.65c5.59-.11,9.4,3.62,11.26,8.55a12.07,12.07,0,0,1-.3,9.86l-5.26,11.57a3.69,3.69,0,0,1-6.4.87l-11.32-15a4.32,4.32,0,0,1-.78-2.07c-.17-1.67.88-3.2,1.63-4.6"/><path class="cls-2" d="M189.86,75.42l-5,9.9c-8.38-12.08-16.83-24-25.34-36l-.09-.16-.11-.19a1.76,1.76,0,0,0-.09-.2c-3.38-7.24,6.47-12.26,11-6.13.81,1.09,16.27,22,19.1,25.6a6.28,6.28,0,0,1,1.2,4.68,9.43,9.43,0,0,1-.62,2.43Zm-16,3.82,8.38,11.86a15.94,15.94,0,0,1-1.15,2c-1.74,3.47-5.14,4.06-8,3.44-4.15-.91-5.08-5.47-3.47-9l.15-.32Zm-8,3L170,74,154.88,52.67a11.54,11.54,0,0,1-2-5.35c-1.06-8.2,7.07-15,14.91-12.94a14.15,14.15,0,0,1,7,4.77c6.23,8.48,12.49,17.29,19,25.5a11.26,11.26,0,0,1,2.38,6,15.33,15.33,0,0,1-1.06,7c-1.61,3.62-3.68,7.34-5.5,11-2.71,5.4-3.58,10.6-10.45,12.92s-14.07-.26-15.82-7.66C162.31,89.34,163.83,86.17,165.84,82.23Z"/><path class="cls-2" d="M200,42.32Z"/><path class="cls-3" d="M329,36.81a6.78,6.78,0,0,0-6.81,6.74V84.47a6.78,6.78,0,0,0,13.55,0V43.55A6.72,6.72,0,0,0,329,36.81m0-7a6.78,6.78,0,0,0,0-13.55,6.78,6.78,0,1,0,0,13.55ZM314.56,84.17a6.73,6.73,0,0,0-6.75-6.75,4.86,4.86,0,0,0-1,.07c-5.27.8-8.74-.13-8.74-5.41V48.62h9.34a6.78,6.78,0,1,0,0-13.55h-9.34V22.26a6.74,6.74,0,1,0-13.48,0V35.07h-4.14a6.78,6.78,0,0,0,0,13.55h4.14V71.68c0,12.55,8.54,21.36,23.89,19.23h.34v-.07A6.7,6.7,0,0,0,314.56,84.17ZM239.1,78.59c-7.59,0-13.8-6.41-13.8-14.35s6.14-14.42,13.8-14.42a13.79,13.79,0,0,1,11.48,6.28C256.86,65.64,250.25,78.59,239.1,78.59Zm30.17-35a6.79,6.79,0,0,0-13.41-1.54,27.12,27.12,0,0,0-16.69-5.81h-.07c-19.6,0-32.74,20.5-25.19,38.78A27.35,27.35,0,0,0,239.1,92.14h.07a26.83,26.83,0,0,0,16.75-5.87,6.78,6.78,0,0,0,13.35-1.6ZM148.12,67.49V43.33a6.78,6.78,0,1,0-13.55,0V67.49c0,12.09-18.15,14.9-21.82,3.14a9.54,9.54,0,0,1-.54-3.14V42.73a6.76,6.76,0,0,0-13.48,0V67.49c-.07,18.7,20.49,30.11,36.84,21.1a6.84,6.84,0,0,0,5.81,3.27,6.72,6.72,0,0,0,6.74-6.74ZM69,56.16c-1.07-.33-3.4-1.34-3.8-2.34a1.49,1.49,0,0,1-.07-.4c0-1.94.33-3.74,5.74-3.74,4.74,0,7.47,1.94,10.08,3a5.89,5.89,0,0,0,2.4.67c.2,0,.4.07.53.07H84A6.79,6.79,0,0,0,87,40.6a50,50,0,0,0-6.34-2.8c-14.08-4.87-29,.67-29,15.48v.14c0,9.95,8.27,14.76,18,17,2.2.47,9,2,9.81,4.14a3.63,3.63,0,0,1,.07.6c0,3-3.54,3.74-6.54,3.74-5,0-8.68-1.74-12.42-4.21h-.06a7,7,0,0,0-3.67-1.06,6.73,6.73,0,0,0-6.75,6.74,6.81,6.81,0,0,0,3.81,6.14A34.08,34.08,0,0,0,73,92.34C85.63,92.34,93,84.6,93,75.12,93,59.57,73.42,57.77,69,56.16Z"/><path class="cls-2" d="M171.81,96.12h0"/><path class="cls-2" d="M173.37,93.65h0Z"/><path class="cls-3" d="M225.5,114.57c-.22-.07-.68-.27-.76-.47,0,0,0,0,0-.08,0-.39.07-.75,1.15-.75a4.56,4.56,0,0,1,2,.6,1.11,1.11,0,0,0,.48.13l.11,0h0a1.36,1.36,0,0,0,.61-2.57,9.33,9.33,0,0,0-1.27-.56c-2.81-1-5.81.14-5.81,3.1h0v0c0,2,1.66,3,3.6,3.39.44.1,1.8.4,2,.83a.84.84,0,0,1,0,.12c0,.6-.7.75-1.3.75a4.31,4.31,0,0,1-2.49-.84h0a1.37,1.37,0,0,0-.74-.22,1.34,1.34,0,0,0-1.35,1.35,1.37,1.37,0,0,0,.76,1.23,6.85,6.85,0,0,0,3.83,1.18c2.53,0,4-1.55,4-3.45,0-3.11-3.93-3.47-4.81-3.79m-10,0c-.21-.07-.68-.27-.76-.47a.54.54,0,0,1,0-.08c0-.39.07-.75,1.15-.75a4.51,4.51,0,0,1,2,.6,1.15,1.15,0,0,0,.49.13l.1,0h0a1.36,1.36,0,0,0,.61-2.57,9.91,9.91,0,0,0-1.27-.56c-2.82-1-5.81.14-5.81,3.1h0v0c0,2,1.66,3,3.59,3.39.44.1,1.81.4,2,.83a.84.84,0,0,1,0,.12c0,.6-.71.75-1.31.75a4.27,4.27,0,0,1-2.48-.84h0a1.31,1.31,0,0,0-.73-.22,1.34,1.34,0,0,0-1.35,1.35,1.37,1.37,0,0,0,.76,1.23,6.84,6.84,0,0,0,3.82,1.18c2.54,0,4-1.55,4-3.45C220.31,115.25,216.39,114.89,215.5,114.57Zm-12.58,1.63a1.35,1.35,0,0,0,1.35,1.35H209a1.35,1.35,0,0,0,1.34-1.35,5.45,5.45,0,0,0-5.49-5.67h0a5.57,5.57,0,0,0-5.42,5.67,6.4,6.4,0,0,0,.36,2.13,5.43,5.43,0,0,0,.77,1.42,6.5,6.5,0,0,0,.86.88,5.45,5.45,0,0,0,1.68.91,6.69,6.69,0,0,0,2,.31,5.9,5.9,0,0,0,3.81-1.46h0a0,0,0,0,1,0,0h0a1.31,1.31,0,0,0,.45-1,1.35,1.35,0,0,0-2.25-1,3.45,3.45,0,0,1-1,.57,2.86,2.86,0,0,1-1.08.22,3.55,3.55,0,0,1-1.36-.25,2.42,2.42,0,0,1-1.39-1.36,3.46,3.46,0,0,1-.25-1.33,2.87,2.87,0,0,1,2.72-3,2.65,2.65,0,0,1,2.53,1.59h-3.06A1.36,1.36,0,0,0,202.92,116.2Zm-5.8,1.75a1.32,1.32,0,0,0-.91.35,3.05,3.05,0,0,1-.92.54,3.18,3.18,0,0,1-1.12.2,3,3,0,0,1-1.22-.24,3,3,0,0,1-1.36-1.08,3.1,3.1,0,0,1-.39-.77,3,3,0,0,1-.13-.87,3.11,3.11,0,0,1,5.19-2.18,1.29,1.29,0,0,0,.91.35,1.35,1.35,0,0,0,.91-2.35,5.81,5.81,0,0,0-9.71,4.18,5.73,5.73,0,0,0,4.07,5.42,6.15,6.15,0,0,0,1.71.25h0a6,6,0,0,0,2.08-.37,5.7,5.7,0,0,0,1.75-1.06,1.35,1.35,0,0,0-.88-2.37Zm-11.56,0a1.32,1.32,0,0,0-.91.35,2.83,2.83,0,0,1-.92.54,3.18,3.18,0,0,1-1.12.2,3.05,3.05,0,0,1-1.22-.24,3,3,0,0,1-1.36-1.08,3.48,3.48,0,0,1-.39-.77,3,3,0,0,1-.13-.87,3.12,3.12,0,0,1,5.2-2.18,1.29,1.29,0,0,0,.9.35,1.35,1.35,0,0,0,.91-2.35,5.81,5.81,0,0,0-9.71,4.18,5.51,5.51,0,0,0,.46,2.22,5.69,5.69,0,0,0,2.11,2.49,5.36,5.36,0,0,0,1.51.71,6,6,0,0,0,1.71.25h0a6,6,0,0,0,2.08-.37,5.58,5.58,0,0,0,1.75-1.06,1.35,1.35,0,0,0-.88-2.37Zm-16.86,1.11a2.88,2.88,0,0,1,0-5.76,2.77,2.77,0,0,1,2.3,1.25A2.9,2.9,0,0,1,168.7,119.06Zm6-7a1.36,1.36,0,0,0-2.69-.31,5.4,5.4,0,0,0-3.34-1.16h0a5.59,5.59,0,0,0-5,7.76,5.48,5.48,0,0,0,5,3.42h0a5.38,5.38,0,0,0,3.36-1.18,1.35,1.35,0,0,0,2.67-.32Z"/><path class="cls-3" d="M252.06,119.22a3,3,0,0,1-3-3,2.86,2.86,0,0,1,.24-1.13,3.07,3.07,0,0,1,1.09-1.31,3.47,3.47,0,0,1,.8-.38,3.77,3.77,0,0,1,.91-.13,3.13,3.13,0,0,1,1.2.24,3,3,0,0,1,1.34,1.08,2.74,2.74,0,0,1,.37.77,2.51,2.51,0,0,1,.15.86,3,3,0,0,1-3.06,3m5.3-5.16a5.77,5.77,0,0,0-2.08-2.5,7.2,7.2,0,0,0-1.51-.71,5.94,5.94,0,0,0-1.71-.25,6,6,0,0,0-2.23.44,5.75,5.75,0,0,0-2.52,2,5.67,5.67,0,0,0-.74,1.5,5.51,5.51,0,0,0-.25,1.68,5.75,5.75,0,0,0,11.5,0A5.42,5.42,0,0,0,257.36,114.06Zm-12.45,6.11a1.34,1.34,0,0,0-1.35-1.35h-.2c-1.05.17-1.75,0-1.75-1.08v-4.69h1.87a1.38,1.38,0,0,0,1.37-1.36,1.36,1.36,0,0,0-1.37-1.35h-1.87v-2.57a1.35,1.35,0,0,0-2.7,0v2.57h-.82a1.34,1.34,0,0,0-1.35,1.35,1.36,1.36,0,0,0,1.35,1.36h.82v4.61c0,2.51,1.71,4.28,4.79,3.85h.06A1.35,1.35,0,0,0,244.91,120.17Z"/><path class="cls-3" d="M302.82,119.07a2.83,2.83,0,0,1-2.78-2.89,2.76,2.76,0,0,1,5.07-1.61,2.89,2.89,0,0,1-2.29,4.5M308.43,108a1.35,1.35,0,1,0-2.69,0v3.46a5.31,5.31,0,0,0-2.93-.86,5.47,5.47,0,0,0-4.54,2.47,5.6,5.6,0,0,0,4.55,8.71,5.39,5.39,0,0,0,3-.94,1.35,1.35,0,0,0,2.58-.56Zm-14.1,2.69A1.36,1.36,0,0,0,293,112v8.19a1.36,1.36,0,0,0,1.37,1.35,1.34,1.34,0,0,0,1.34-1.35V112A1.34,1.34,0,0,0,294.33,110.69Zm0-1.4a1.36,1.36,0,0,0,0-2.71,1.36,1.36,0,1,0,0,2.71Zm-3.13,7.54V112a1.35,1.35,0,0,0-1.35-1.36,1.37,1.37,0,0,0-1.37,1.36v4.83a2.25,2.25,0,0,1-4.36.63,1.85,1.85,0,0,1-.11-.63v-5a1.35,1.35,0,0,0-2.7,0h0v4.94a4.94,4.94,0,0,0,7.37,4.23,1.4,1.4,0,0,0,1.17.65,1.34,1.34,0,0,0,1.35-1.35Zm-10.77,3.48a1.35,1.35,0,0,0-1.35-1.36h-.19a1.94,1.94,0,0,1-1.51-.21,1.25,1.25,0,0,1-.26-.82v-10a1.36,1.36,0,0,0-2.71,0v9.84a3.84,3.84,0,0,0,1.08,2.94,3.93,3.93,0,0,0,2.82,1,7,7,0,0,0,.89-.06h0A1.37,1.37,0,0,0,280.43,120.31ZM271,111.09h-1.87v-.76s0-.69.27-.94a2.06,2.06,0,0,1,1.49-.21h.19a1.36,1.36,0,0,0,.19-2.7h-.05a4.26,4.26,0,0,0-3.7,1,4,4,0,0,0-1.09,3v.7h-.83a1.35,1.35,0,0,0,0,2.7h.83v6.44a1.35,1.35,0,0,0,2.7,0v-6.44H271a1.27,1.27,0,0,0,.28,0,1.36,1.36,0,0,0,.9-.66s0,0,0,0,0,0,0,0l0-.1a.2.2,0,0,0,0,0,.11.11,0,0,0,0-.07h0a1.6,1.6,0,0,0,0-.39A1.36,1.36,0,0,0,271,111.09Z"/><path class="cls-3" d="M335.61,121s0,0,0,0l0-.07s0,0,0,0,0,0,0-.06a.14.14,0,0,0,0-.06s0,0,0-.06l0-.06a.11.11,0,0,1,0-.06s0,0,0-.08l0,0a.22.22,0,0,1,0-.08v-.12h0v-.14s0,0,0,0a.18.18,0,0,0,0-.1s0,0,0-.06,0,0,0-.07,0,0,0-.07,0,0,0-.05a.64.64,0,0,0,0-.07s0,0,0,0a.36.36,0,0,0-.05-.09s0,0,0,0a.76.76,0,0,0-.08-.11l-2.66-3.19,2.66-3.21a1.33,1.33,0,0,0,.31-.86,1.34,1.34,0,0,0-1.35-1.35,1.29,1.29,0,0,0-1,.49h0l-2.32,2.81-2.34-2.81a1.31,1.31,0,0,0-1-.49,1.34,1.34,0,0,0-1.35,1.35,1.28,1.28,0,0,0,.31.86l2.66,3.21-2.66,3.19-.08.11s0,0,0,0a.2.2,0,0,0-.06.09.08.08,0,0,0,0,0,.16.16,0,0,0,0,.07l0,.05a.19.19,0,0,0,0,.07.12.12,0,0,0,0,.08.07.07,0,0,0,0,0,.61.61,0,0,1,0,.11h0v.27a.08.08,0,0,0,0,.07v.06s0,.06,0,.08a.08.08,0,0,0,0,.06l0,.06s0,0,0,.06l0,.06a.09.09,0,0,1,0,.06l0,0s0,0,0,.07l0,0,0,.07,0,0,.05.05s0,0,.07,0a.05.05,0,0,0,0,0,0,0,0,0,1,0,0l.08,0,0,0,.07,0,0,0,.06,0a.07.07,0,0,1,.06,0l.06,0,.06,0h.12a.11.11,0,0,0,.08,0h.32a.23.23,0,0,0,.11,0h0l.11,0s0,0,0,0l.1,0h0s.06,0,.1,0h0l.2-.15h0l.08-.08h0l.08-.08h0l2.34-2.81,2.32,2.81h0l.07.08h0a.65.65,0,0,0,.09.08h0a.8.8,0,0,0,.21.15h0l.09,0h0l.11,0,0,0,.11,0h0a.25.25,0,0,0,.12,0s0,0,0,0h.29a.16.16,0,0,0,.09,0h.12s0,0,0,0l.08,0,0,0s.06,0,.07,0l.05,0,.07,0,0,0,.07,0s0,0,0,0l0,0,.08-.07,0-.05,0,0Zm-12-3.07a1.3,1.3,0,0,0-.9.35,3,3,0,0,1-.93.54,3.14,3.14,0,0,1-1.12.2,3,3,0,0,1-1.21-.24,2.94,2.94,0,0,1-1.89-2.72,3.12,3.12,0,0,1,5.2-2.18,1.29,1.29,0,0,0,.91.35A1.34,1.34,0,0,0,325,112.9a1.37,1.37,0,0,0-.44-1c-3.69-3.31-9.73-.79-9.71,4.18a5.56,5.56,0,0,0,2.56,4.71,5.36,5.36,0,0,0,1.51.71,6.1,6.1,0,0,0,1.71.25h0a6.13,6.13,0,0,0,2.09-.37,5.7,5.7,0,0,0,1.75-1.06,1.34,1.34,0,0,0,.46-1A1.35,1.35,0,0,0,323.61,118Z"/></svg>